<svg width="971" height="29" viewBox="0 0 971 29" fill="none" xmlns="http://www.w3.org/2000/svg">
<path d="M8.949 12.735L7.7085 13.848C7.87248 14.4093 8.10153 14.9494 8.391 15.4575C8.69293 15.9619 9.05675 16.4265 9.474 16.8405L11.0805 16.3455C11.9805 16.068 12.963 16.353 13.5615 17.0655L14.4765 18.1545C14.847 18.5917 15.0327 19.1559 14.9943 19.7276C14.956 20.2994 14.6965 20.8337 14.271 21.2175C12.7785 22.5795 10.4805 23.04 8.76 21.6885C7.2472 20.4986 5.96766 19.039 4.986 17.3835C4.00184 15.7361 3.34293 13.9152 3.045 12.0195C2.715 9.88651 4.2765 8.17951 6.2235 7.59751C7.3845 7.24951 8.6235 7.84651 9.0495 8.95951L9.552 10.272C9.882 11.136 9.645 12.111 8.949 12.735Z" fill="#E0F2FF"/>
<path d="M32.244 10.324H34.876V14.188H38.656V16.708H34.876V20.544H32.244V16.708H28.464V14.188H32.244V10.324ZM49.1499 22.224C47.8992 22.224 46.7605 21.9253 45.7339 21.328C44.7259 20.7307 43.9232 19.872 43.3259 18.752C42.7285 17.632 42.4299 16.2973 42.4299 14.748C42.4299 13.5533 42.6632 12.4147 43.1299 11.332C43.5965 10.2493 44.2219 9.232 45.0059 8.28C45.8085 7.30933 46.7045 6.41333 47.6939 5.592C48.7019 4.77067 49.7472 4.01467 50.8299 3.324L52.8179 5.508C51.3059 6.21733 50.0459 7.03867 49.0379 7.972C48.0299 8.90533 47.2552 9.85733 46.7139 10.828C46.1725 11.7987 45.8645 12.7133 45.7899 13.572L45.0339 13.46C45.5379 12.396 46.1912 11.5747 46.9939 10.996C47.8152 10.3987 48.8699 10.1 50.1579 10.1C51.0912 10.1 51.9779 10.3613 52.8179 10.884C53.6765 11.388 54.3672 12.0787 54.8899 12.956C55.4125 13.8333 55.6739 14.8507 55.6739 16.008C55.6739 17.2773 55.3659 18.3787 54.7499 19.312C54.1339 20.2453 53.3312 20.964 52.3419 21.468C51.3525 21.972 50.2885 22.224 49.1499 22.224ZM49.0379 19.536C49.7099 19.536 50.3072 19.396 50.8299 19.116C51.3712 18.8173 51.8005 18.4067 52.1179 17.884C52.4352 17.3427 52.5939 16.7173 52.5939 16.008C52.5939 15.3173 52.4352 14.72 52.1179 14.216C51.8005 13.712 51.3712 13.32 50.8299 13.04C50.2885 12.76 49.6912 12.62 49.0379 12.62C48.3845 12.62 47.7872 12.76 47.2459 13.04C46.7232 13.3013 46.3032 13.6653 45.9859 14.132C45.6685 14.58 45.5099 15.084 45.5099 15.644V16.148C45.5099 16.7453 45.6592 17.3053 45.9579 17.828C46.2752 18.3507 46.7045 18.7707 47.2459 19.088C47.7872 19.3867 48.3845 19.536 49.0379 19.536ZM58.2737 22C59.4311 20.824 60.5511 19.6853 61.6337 18.584C62.7164 17.4827 63.6871 16.4093 64.5457 15.364C65.4231 14.3187 66.1044 13.3107 66.5897 12.34C67.0937 11.3693 67.3457 10.4267 67.3457 9.512C67.3457 8.952 67.2524 8.46667 67.0657 8.056C66.8977 7.62667 66.6551 7.28133 66.3377 7.02C66.0204 6.74 65.6657 6.53467 65.2737 6.404C64.8817 6.25467 64.4617 6.18 64.0137 6.18C63.4351 6.18 62.9404 6.27333 62.5297 6.46C62.1191 6.64667 61.7831 6.88933 61.5217 7.188C61.2791 7.468 61.0924 7.776 60.9617 8.112C60.8311 8.448 60.7657 8.784 60.7657 9.12C60.7657 9.736 60.8591 10.2867 61.0457 10.772C61.2511 11.2573 61.5217 11.6773 61.8577 12.032L60.0377 13.712C59.5711 13.432 59.1697 13.0307 58.8337 12.508C58.5164 11.9667 58.2737 11.3973 58.1057 10.8C57.9377 10.2027 57.8537 9.67067 57.8537 9.204C57.8537 8.17733 58.1057 7.22533 58.6097 6.348C59.1324 5.452 59.8884 4.724 60.8777 4.164C61.8857 3.604 63.0991 3.324 64.5177 3.324C65.7124 3.324 66.7484 3.59467 67.6257 4.136C68.5217 4.67733 69.2124 5.40533 69.6977 6.32C70.2017 7.216 70.4537 8.196 70.4537 9.26C70.4537 10.1747 70.2764 11.0707 69.9217 11.948C69.5671 12.8253 69.0911 13.6933 68.4937 14.552C67.9151 15.392 67.2617 16.232 66.5337 17.072C65.8244 17.8933 65.1151 18.724 64.4057 19.564L63.0617 19.116H70.9857V22H58.2737ZM81.8523 16.148C81.8523 15.196 82.0297 14.3747 82.3843 13.684C82.7577 12.9933 83.215 12.4147 83.7563 11.948C84.2977 11.4813 84.839 11.1267 85.3803 10.884C84.8577 10.5107 84.419 10.072 84.0643 9.568C83.7283 9.04533 83.5603 8.38267 83.5603 7.58C83.5603 6.74 83.775 6.00267 84.2043 5.368C84.6337 4.73333 85.2217 4.23867 85.9683 3.884C86.715 3.51067 87.555 3.324 88.4883 3.324C89.4217 3.324 90.2617 3.51067 91.0083 3.884C91.755 4.23867 92.343 4.724 92.7723 5.34C93.2203 5.956 93.4443 6.656 93.4443 7.44C93.4443 8.31733 93.267 9.01733 92.9123 9.54C92.5577 10.044 92.1097 10.492 91.5683 10.884C92.1283 11.1453 92.679 11.5093 93.2203 11.976C93.7803 12.4427 94.2377 13.0213 94.5923 13.712C94.947 14.4027 95.1243 15.2147 95.1243 16.148C95.1243 17.212 94.8257 18.2107 94.2283 19.144C93.6497 20.0587 92.8563 20.8053 91.8483 21.384C90.859 21.944 89.7297 22.224 88.4603 22.224C87.191 22.224 86.0617 21.944 85.0723 21.384C84.083 20.8053 83.299 20.0587 82.7203 19.144C82.1417 18.2107 81.8523 17.212 81.8523 16.148ZM84.9043 16.036C84.9043 16.6893 85.063 17.296 85.3803 17.856C85.7163 18.416 86.1457 18.864 86.6683 19.2C87.2097 19.536 87.807 19.704 88.4603 19.704C89.1323 19.704 89.7483 19.536 90.3083 19.2C90.8683 18.864 91.3163 18.416 91.6523 17.856C91.9883 17.296 92.1563 16.6893 92.1563 16.036C92.1563 15.364 91.9977 14.7573 91.6803 14.216C91.363 13.6747 90.9337 13.236 90.3923 12.9C89.851 12.564 89.2537 12.3867 88.6003 12.368C87.947 12.3493 87.3403 12.508 86.7803 12.844C86.2203 13.1613 85.763 13.6 85.4083 14.16C85.0723 14.72 84.9043 15.3453 84.9043 16.036ZM86.4443 7.944C86.4443 8.46667 86.659 8.924 87.0883 9.316C87.5177 9.68933 88.003 9.876 88.5443 9.876C89.0857 9.876 89.5617 9.68933 89.9723 9.316C90.383 8.924 90.5883 8.46667 90.5883 7.944C90.5883 7.328 90.383 6.824 89.9723 6.432C89.5803 6.02133 89.1043 5.816 88.5443 5.816C88.003 5.816 87.5177 6.02133 87.0883 6.432C86.659 6.824 86.4443 7.328 86.4443 7.944ZM108.939 3.548L101.659 22H98.2993L104.767 6.012L105.775 6.404H96.7873V3.548H108.939ZM110.345 16.148C110.345 15.196 110.522 14.3747 110.877 13.684C111.25 12.9933 111.707 12.4147 112.249 11.948C112.79 11.4813 113.331 11.1267 113.873 10.884C113.35 10.5107 112.911 10.072 112.557 9.568C112.221 9.04533 112.053 8.38267 112.053 7.58C112.053 6.74 112.267 6.00267 112.697 5.368C113.126 4.73333 113.714 4.23867 114.461 3.884C115.207 3.51067 116.047 3.324 116.981 3.324C117.914 3.324 118.754 3.51067 119.501 3.884C120.247 4.23867 120.835 4.724 121.265 5.34C121.713 5.956 121.937 6.656 121.937 7.44C121.937 8.31733 121.759 9.01733 121.405 9.54C121.05 10.044 120.602 10.492 120.061 10.884C120.621 11.1453 121.171 11.5093 121.713 11.976C122.273 12.4427 122.73 13.0213 123.085 13.712C123.439 14.4027 123.617 15.2147 123.617 16.148C123.617 17.212 123.318 18.2107 122.721 19.144C122.142 20.0587 121.349 20.8053 120.341 21.384C119.351 21.944 118.222 22.224 116.953 22.224C115.683 22.224 114.554 21.944 113.565 21.384C112.575 20.8053 111.791 20.0587 111.213 19.144C110.634 18.2107 110.345 17.212 110.345 16.148ZM113.397 16.036C113.397 16.6893 113.555 17.296 113.873 17.856C114.209 18.416 114.638 18.864 115.161 19.2C115.702 19.536 116.299 19.704 116.953 19.704C117.625 19.704 118.241 19.536 118.801 19.2C119.361 18.864 119.809 18.416 120.145 17.856C120.481 17.296 120.649 16.6893 120.649 16.036C120.649 15.364 120.49 14.7573 120.173 14.216C119.855 13.6747 119.426 13.236 118.885 12.9C118.343 12.564 117.746 12.3867 117.093 12.368C116.439 12.3493 115.833 12.508 115.273 12.844C114.713 13.1613 114.255 13.6 113.901 14.16C113.565 14.72 113.397 15.3453 113.397 16.036ZM114.937 7.944C114.937 8.46667 115.151 8.924 115.581 9.316C116.01 9.68933 116.495 9.876 117.037 9.876C117.578 9.876 118.054 9.68933 118.465 9.316C118.875 8.924 119.081 8.46667 119.081 7.944C119.081 7.328 118.875 6.824 118.465 6.432C118.073 6.02133 117.597 5.816 117.037 5.816C116.495 5.816 116.01 6.02133 115.581 6.432C115.151 6.824 114.937 7.328 114.937 7.944ZM125.867 14.636H131.075V17.156H125.867V14.636ZM134.315 3.548H139.299V22H136.303V6.432H134.315V3.548ZM155.232 3.548L147.952 22H144.592L151.06 6.012L152.068 6.404H143.08V3.548H155.232ZM162.297 16.008C161.364 16.008 160.477 15.756 159.637 15.252C158.797 14.748 158.107 14.048 157.565 13.152C157.043 12.256 156.781 11.248 156.781 10.128C156.781 8.76533 157.089 7.59867 157.705 6.628C158.321 5.65733 159.124 4.91067 160.113 4.388C161.121 3.84667 162.185 3.576 163.305 3.576C164.575 3.576 165.713 3.856 166.721 4.416C167.729 4.976 168.532 5.75067 169.129 6.74C169.727 7.72933 170.025 8.85867 170.025 10.128C170.025 11.6027 169.755 12.9467 169.213 14.16C168.672 15.3547 167.953 16.4467 167.057 17.436C166.161 18.4067 165.172 19.3027 164.089 20.124C163.007 20.9267 161.924 21.6827 160.841 22.392L158.853 20.208C160.403 19.4427 161.747 18.6307 162.885 17.772C164.024 16.8947 164.911 16.0173 165.545 15.14C166.199 14.2627 166.572 13.432 166.665 12.648L167.477 12.676C166.936 13.74 166.273 14.5613 165.489 15.14C164.724 15.7187 163.66 16.008 162.297 16.008ZM163.417 13.488C164.444 13.488 165.293 13.1893 165.965 12.592C166.637 11.976 166.973 11.2013 166.973 10.268V9.708C166.955 9.07333 166.787 8.504 166.469 8C166.152 7.47733 165.732 7.05733 165.209 6.74C164.687 6.42267 164.089 6.264 163.417 6.264C162.764 6.264 162.167 6.41333 161.625 6.712C161.084 7.01067 160.655 7.44 160.337 8C160.039 8.54133 159.889 9.18533 159.889 9.932C159.889 10.6413 160.048 11.2667 160.365 11.808C160.683 12.3493 161.103 12.7693 161.625 13.068C162.167 13.348 162.764 13.488 163.417 13.488ZM177.699 22.224C176.691 22.224 175.721 22.0373 174.787 21.664C173.854 21.2907 173.107 20.8333 172.547 20.292L174.115 17.94C174.489 18.3693 174.983 18.7147 175.599 18.976C176.234 19.2373 176.85 19.368 177.447 19.368C178.101 19.368 178.67 19.228 179.155 18.948C179.659 18.668 180.051 18.276 180.331 17.772C180.63 17.268 180.779 16.6893 180.779 16.036C180.779 15.3267 180.649 14.7013 180.387 14.16C180.126 13.6 179.734 13.1613 179.211 12.844C178.689 12.5267 178.054 12.368 177.307 12.368C176.673 12.368 176.075 12.4613 175.515 12.648C174.974 12.816 174.386 13.0773 173.751 13.432H173.723V3.548H182.627V6.404H176.327V10.772L175.935 10.156C176.253 10.0627 176.589 9.988 176.943 9.932C177.298 9.876 177.653 9.848 178.007 9.848C179.277 9.848 180.341 10.128 181.199 10.688C182.077 11.248 182.739 11.9853 183.187 12.9C183.635 13.8147 183.859 14.8227 183.859 15.924C183.859 17.1 183.589 18.164 183.047 19.116C182.525 20.068 181.797 20.824 180.863 21.384C179.93 21.944 178.875 22.224 177.699 22.224ZM187.008 14.636H192.216V17.156H187.008V14.636ZM202.736 22.084C201.616 22.084 200.58 21.8787 199.628 21.468C198.695 21.0387 197.883 20.4227 197.192 19.62C196.501 18.8173 195.96 17.8373 195.568 16.68C195.176 15.504 194.98 14.1787 194.98 12.704C194.98 11.0987 195.167 9.708 195.54 8.532C195.913 7.356 196.436 6.38533 197.108 5.62C197.799 4.836 198.62 4.26667 199.572 3.912C200.524 3.53867 201.579 3.352 202.736 3.352C203.875 3.352 204.911 3.55733 205.844 3.968C206.796 4.37867 207.617 4.98533 208.308 5.788C208.999 6.59067 209.531 7.58 209.904 8.756C210.296 9.91333 210.492 11.2293 210.492 12.704C210.492 14.216 210.296 15.56 209.904 16.736C209.531 17.8933 208.989 18.8733 208.28 19.676C207.589 20.46 206.777 21.0573 205.844 21.468C204.911 21.8787 203.875 22.084 202.736 22.084ZM202.708 19.2C203.772 19.2 204.649 18.9293 205.34 18.388C206.031 17.828 206.544 17.0533 206.88 16.064C207.216 15.056 207.384 13.908 207.384 12.62C207.384 11.3693 207.216 10.268 206.88 9.316C206.544 8.34533 206.031 7.58933 205.34 7.048C204.649 6.488 203.772 6.21733 202.708 6.236C201.681 6.21733 200.823 6.488 200.132 7.048C199.441 7.58933 198.928 8.34533 198.592 9.316C198.256 10.2867 198.088 11.416 198.088 12.704C198.088 13.9547 198.256 15.0747 198.592 16.064C198.928 17.0533 199.441 17.828 200.132 18.388C200.823 18.9293 201.681 19.2 202.708 19.2ZM219.201 22.224C217.95 22.224 216.811 21.9253 215.785 21.328C214.777 20.7307 213.974 19.872 213.377 18.752C212.779 17.632 212.481 16.2973 212.481 14.748C212.481 13.5533 212.714 12.4147 213.181 11.332C213.647 10.2493 214.273 9.232 215.057 8.28C215.859 7.30933 216.755 6.41333 217.745 5.592C218.753 4.77067 219.798 4.01467 220.881 3.324L222.869 5.508C221.357 6.21733 220.097 7.03867 219.089 7.972C218.081 8.90533 217.306 9.85733 216.765 10.828C216.223 11.7987 215.915 12.7133 215.841 13.572L215.085 13.46C215.589 12.396 216.242 11.5747 217.045 10.996C217.866 10.3987 218.921 10.1 220.209 10.1C221.142 10.1 222.029 10.3613 222.869 10.884C223.727 11.388 224.418 12.0787 224.941 12.956C225.463 13.8333 225.725 14.8507 225.725 16.008C225.725 17.2773 225.417 18.3787 224.801 19.312C224.185 20.2453 223.382 20.964 222.393 21.468C221.403 21.972 220.339 22.224 219.201 22.224ZM219.089 19.536C219.761 19.536 220.358 19.396 220.881 19.116C221.422 18.8173 221.851 18.4067 222.169 17.884C222.486 17.3427 222.645 16.7173 222.645 16.008C222.645 15.3173 222.486 14.72 222.169 14.216C221.851 13.712 221.422 13.32 220.881 13.04C220.339 12.76 219.742 12.62 219.089 12.62C218.435 12.62 217.838 12.76 217.297 13.04C216.774 13.3013 216.354 13.6653 216.037 14.132C215.719 14.58 215.561 15.084 215.561 15.644V16.148C215.561 16.7453 215.71 17.3053 216.009 17.828C216.326 18.3507 216.755 18.7707 217.297 19.088C217.838 19.3867 218.435 19.536 219.089 19.536ZM239.161 3.548L234.373 11.5L232.637 10.66C232.879 10.5293 233.131 10.436 233.393 10.38C233.673 10.324 233.953 10.296 234.233 10.296C234.923 10.2773 235.595 10.3613 236.249 10.548C236.902 10.716 237.49 11.024 238.013 11.472C238.535 11.9013 238.946 12.4707 239.245 13.18C239.562 13.8893 239.721 14.7853 239.721 15.868C239.721 17.1747 239.422 18.304 238.825 19.256C238.227 20.208 237.434 20.9453 236.445 21.468C235.455 21.972 234.363 22.224 233.169 22.224C232.291 22.224 231.386 22.0467 230.453 21.692C229.538 21.3187 228.791 20.824 228.213 20.208L229.753 17.744C230.089 18.1547 230.565 18.528 231.181 18.864C231.797 19.1813 232.441 19.34 233.113 19.34C233.747 19.34 234.326 19.2 234.849 18.92C235.39 18.6213 235.819 18.2013 236.137 17.66C236.473 17.1 236.641 16.4373 236.641 15.672C236.641 14.664 236.342 13.8707 235.745 13.292C235.166 12.6947 234.354 12.396 233.309 12.396C232.767 12.396 232.319 12.4333 231.965 12.508C231.61 12.5827 231.293 12.6667 231.013 12.76L230.901 12.676L235.044 6.04L235.941 6.404H229.389V3.548H239.161ZM253.243 3.548L248.455 11.5L246.719 10.66C246.961 10.5293 247.213 10.436 247.475 10.38C247.755 10.324 248.035 10.296 248.315 10.296C249.005 10.2773 249.677 10.3613 250.331 10.548C250.984 10.716 251.572 11.024 252.095 11.472C252.617 11.9013 253.028 12.4707 253.327 13.18C253.644 13.8893 253.803 14.7853 253.803 15.868C253.803 17.1747 253.504 18.304 252.907 19.256C252.309 20.208 251.516 20.9453 250.527 21.468C249.537 21.972 248.445 22.224 247.251 22.224C246.373 22.224 245.468 22.0467 244.535 21.692C243.62 21.3187 242.873 20.824 242.295 20.208L243.835 17.744C244.171 18.1547 244.647 18.528 245.263 18.864C245.879 19.1813 246.523 19.34 247.195 19.34C247.829 19.34 248.408 19.2 248.931 18.92C249.472 18.6213 249.901 18.2013 250.219 17.66C250.555 17.1 250.723 16.4373 250.723 15.672C250.723 14.664 250.424 13.8707 249.827 13.292C249.248 12.6947 248.436 12.396 247.391 12.396C246.849 12.396 246.401 12.4333 246.047 12.508C245.692 12.5827 245.375 12.6667 245.095 12.76L244.983 12.676L249.127 6.04L250.023 6.404H243.471V3.548H253.243Z" fill="#E0F2FF"/>
<path d="M775.332 5.116H778.216V10.296H781.352V12.564H778.216V22H775.332V12.564H773.26V10.296H775.332V5.116ZM788.218 22.476C787.135 22.476 786.249 22.1493 785.558 21.496C784.867 20.8427 784.503 20.0027 784.466 18.976V10.268H787.35V17.94C787.387 18.5373 787.555 19.032 787.854 19.424C788.171 19.7973 788.675 19.9933 789.366 20.012C790.001 20.012 790.561 19.8253 791.046 19.452C791.55 19.06 791.942 18.5373 792.222 17.884C792.521 17.212 792.67 16.4467 792.67 15.588V10.268H795.554V22H792.95L792.726 19.284L792.838 19.732C792.595 20.2547 792.25 20.7307 791.802 21.16C791.354 21.5707 790.822 21.888 790.206 22.112C789.59 22.3547 788.927 22.476 788.218 22.476ZM799.97 22V0.244H802.854V22H799.97ZM805.71 14.16L811.086 22H807.726L803.806 15.812L805.71 14.16ZM801.958 18.388L801.678 15.616L808.79 10.016L810.554 11.556L801.958 18.388ZM818.87 22.28C817.768 22.28 816.77 22.056 815.874 21.608C814.978 21.1413 814.268 20.4507 813.746 19.536C813.223 18.6213 812.962 17.492 812.962 16.148C812.962 14.8227 813.232 13.684 813.774 12.732C814.334 11.78 815.062 11.052 815.958 10.548C816.872 10.0253 817.862 9.764 818.926 9.764C820.046 9.764 820.96 10.0067 821.67 10.492C822.398 10.9587 822.967 11.5093 823.378 12.144L823.182 12.592L823.462 10.268H826.122V22H823.238V19.06L823.546 19.76C823.471 19.9093 823.312 20.124 823.07 20.404C822.827 20.6653 822.5 20.9453 822.09 21.244C821.698 21.5427 821.231 21.7947 820.69 22C820.167 22.1867 819.56 22.28 818.87 22.28ZM819.654 19.928C820.27 19.928 820.82 19.816 821.306 19.592C821.791 19.368 822.202 19.0507 822.538 18.64C822.874 18.2293 823.107 17.744 823.238 17.184V14.748C823.088 14.2253 822.836 13.7773 822.482 13.404C822.127 13.012 821.698 12.704 821.194 12.48C820.708 12.256 820.167 12.144 819.57 12.144C818.898 12.144 818.282 12.312 817.722 12.648C817.162 12.9653 816.714 13.4133 816.378 13.992C816.042 14.5707 815.874 15.2427 815.874 16.008C815.874 16.736 816.042 17.3987 816.378 17.996C816.732 18.5933 817.199 19.0693 817.778 19.424C818.356 19.76 818.982 19.928 819.654 19.928ZM833.116 10.268L833.368 12.956L833.256 12.592C833.648 11.752 834.255 11.08 835.076 10.576C835.897 10.0533 836.868 9.792 837.988 9.792C839.089 9.792 839.995 10.1187 840.704 10.772C841.432 11.4253 841.805 12.2747 841.824 13.32V22H838.94V14.328C838.921 13.7307 838.744 13.2453 838.408 12.872C838.072 12.48 837.549 12.2747 836.84 12.256C836.205 12.256 835.627 12.452 835.104 12.844C834.581 13.2173 834.171 13.7307 833.872 14.384C833.573 15.0373 833.424 15.7933 833.424 16.652V22H830.54V10.268H833.116ZM851.975 27.824C851.061 27.824 850.267 27.7213 849.595 27.516C848.923 27.3107 848.317 27.0213 847.775 26.648C847.253 26.2933 846.749 25.9107 846.263 25.5L847.971 23.512C848.55 24.0533 849.147 24.4827 849.763 24.8C850.379 25.136 851.098 25.304 851.919 25.304C852.741 25.304 853.441 25.164 854.019 24.884C854.617 24.6227 855.074 24.2493 855.391 23.764C855.709 23.2787 855.867 22.7 855.867 22.028L855.895 18.976L856.091 19.536C855.774 20.3013 855.186 20.9547 854.327 21.496C853.469 22.0187 852.414 22.28 851.163 22.28C850.099 22.28 849.11 22.0093 848.195 21.468C847.299 20.9267 846.581 20.1893 846.039 19.256C845.498 18.3227 845.227 17.268 845.227 16.092C845.227 14.86 845.507 13.7773 846.067 12.844C846.646 11.892 847.402 11.1453 848.335 10.604C849.269 10.044 850.267 9.764 851.331 9.764C852.377 9.764 853.31 9.96933 854.131 10.38C854.953 10.772 855.569 11.2667 855.979 11.864L855.811 12.34L856.119 10.268H858.779V22.056C858.779 23.1387 858.49 24.1093 857.911 24.968C857.351 25.8453 856.567 26.536 855.559 27.04C854.551 27.5627 853.357 27.824 851.975 27.824ZM848.139 16.008C848.139 16.736 848.307 17.3987 848.643 17.996C848.979 18.5933 849.437 19.0693 850.015 19.424C850.613 19.76 851.275 19.928 852.003 19.928C852.657 19.928 853.245 19.816 853.767 19.592C854.29 19.3493 854.729 19.032 855.083 18.64C855.457 18.2293 855.727 17.7533 855.895 17.212V14.776C855.727 14.2347 855.457 13.7773 855.083 13.404C854.71 13.012 854.262 12.704 853.739 12.48C853.217 12.256 852.638 12.144 852.003 12.144C851.275 12.144 850.613 12.312 850.015 12.648C849.437 12.9653 848.979 13.4133 848.643 13.992C848.307 14.5707 848.139 15.2427 848.139 16.008ZM872.793 20.908C872.27 21.3373 871.635 21.6733 870.889 21.916C870.161 22.1587 869.423 22.28 868.677 22.28C867.389 22.28 866.25 22.028 865.261 21.524C864.29 21.02 863.534 20.3107 862.993 19.396C862.451 18.4813 862.181 17.3893 862.181 16.12C862.181 14.8693 862.47 13.7867 863.049 12.872C863.627 11.9387 864.393 11.2293 865.345 10.744C866.297 10.24 867.305 9.988 868.369 9.988C869.339 9.988 870.198 10.1187 870.945 10.38C871.691 10.6413 872.335 11.0053 872.877 11.472L871.449 13.348C871.131 13.0867 870.73 12.8533 870.245 12.648C869.778 12.4427 869.237 12.34 868.621 12.34C867.967 12.34 867.37 12.508 866.829 12.844C866.287 13.1613 865.858 13.6093 865.541 14.188C865.223 14.748 865.065 15.392 865.065 16.12C865.065 16.8107 865.223 17.4547 865.541 18.052C865.877 18.6307 866.334 19.088 866.913 19.424C867.491 19.76 868.154 19.928 868.901 19.928C869.386 19.928 869.834 19.8627 870.245 19.732C870.655 19.5827 871.019 19.3773 871.337 19.116L872.793 20.908ZM879.511 22.252C878.652 22.252 877.821 22.1027 877.019 21.804C876.216 21.4867 875.553 21.0293 875.031 20.432L876.263 18.808C876.767 19.2747 877.271 19.6293 877.775 19.872C878.297 20.096 878.792 20.208 879.259 20.208C879.632 20.208 879.968 20.1707 880.267 20.096C880.565 20.0027 880.808 19.8533 880.995 19.648C881.181 19.4427 881.275 19.172 881.275 18.836C881.275 18.444 881.144 18.136 880.883 17.912C880.621 17.688 880.285 17.5013 879.875 17.352C879.464 17.2027 879.025 17.0627 878.559 16.932C877.569 16.6147 876.823 16.1667 876.319 15.588C875.815 14.9907 875.563 14.2907 875.563 13.488C875.563 12.872 875.712 12.2933 876.011 11.752C876.328 11.192 876.804 10.7347 877.439 10.38C878.073 10.0253 878.857 9.848 879.791 9.848C880.649 9.848 881.405 9.95067 882.059 10.156C882.712 10.3427 883.319 10.6693 883.879 11.136L882.759 12.872C882.423 12.536 882.021 12.284 881.555 12.116C881.107 11.9293 880.696 11.8267 880.323 11.808C879.987 11.808 879.679 11.864 879.399 11.976C879.119 12.0693 878.895 12.2187 878.727 12.424C878.559 12.6107 878.475 12.8347 878.475 13.096C878.456 13.4693 878.577 13.7773 878.839 14.02C879.119 14.244 879.473 14.4307 879.903 14.58C880.332 14.7107 880.752 14.8507 881.163 15C881.741 15.168 882.255 15.4013 882.703 15.7C883.151 15.98 883.505 16.3253 883.767 16.736C884.028 17.1467 884.159 17.6693 884.159 18.304C884.159 18.9947 883.991 19.648 883.655 20.264C883.319 20.8613 882.805 21.3467 882.115 21.72C881.424 22.0747 880.556 22.252 879.511 22.252ZM886.708 16.008C886.708 14.832 886.988 13.7773 887.548 12.844C888.108 11.892 888.883 11.1453 889.872 10.604C890.861 10.0627 891.991 9.792 893.26 9.792C894.548 9.792 895.677 10.0627 896.648 10.604C897.619 11.1453 898.365 11.892 898.888 12.844C899.429 13.7773 899.7 14.832 899.7 16.008C899.7 17.184 899.429 18.248 898.888 19.2C898.365 20.152 897.619 20.908 896.648 21.468C895.677 22.0093 894.539 22.28 893.232 22.28C891.981 22.28 890.861 22.028 889.872 21.524C888.901 21.02 888.127 20.3013 887.548 19.368C886.988 18.416 886.708 17.296 886.708 16.008ZM889.62 16.036C889.62 16.764 889.779 17.4267 890.096 18.024C890.413 18.6027 890.843 19.0693 891.384 19.424C891.925 19.76 892.532 19.928 893.204 19.928C893.895 19.928 894.511 19.76 895.052 19.424C895.593 19.0693 896.013 18.6027 896.312 18.024C896.629 17.4267 896.788 16.764 896.788 16.036C896.788 15.308 896.629 14.6547 896.312 14.076C896.013 13.4973 895.593 13.0307 895.052 12.676C894.511 12.3213 893.895 12.144 893.204 12.144C892.513 12.144 891.897 12.3213 891.356 12.676C890.815 13.0307 890.385 13.5067 890.068 14.104C889.769 14.6827 889.62 15.3267 889.62 16.036ZM904.09 22V12.816H902.102V10.268H904.09V5.508C904.09 3.828 904.492 2.53067 905.294 1.616C906.097 0.701333 907.264 0.244 908.794 0.244C909.205 0.244 909.662 0.309333 910.166 0.439999C910.67 0.551999 911.118 0.738665 911.51 0.999998L910.306 3.1C910.138 2.91333 909.942 2.78267 909.718 2.708C909.513 2.63333 909.298 2.596 909.074 2.596C908.421 2.596 907.908 2.82 907.534 3.268C907.161 3.716 906.974 4.48133 906.974 5.564V10.268H910.67V12.816H906.974V22H904.09ZM912.742 22V12.816H910.754V10.268H912.742V5.508C912.742 3.828 913.144 2.53067 913.946 1.616C914.749 0.701333 915.916 0.244 917.446 0.244C917.857 0.244 918.314 0.309333 918.818 0.439999C919.322 0.551999 919.77 0.738665 920.162 0.999998L918.958 3.1C918.79 2.91333 918.594 2.78267 918.37 2.708C918.165 2.63333 917.95 2.596 917.726 2.596C917.073 2.596 916.56 2.82 916.186 3.268C915.813 3.716 915.626 4.48133 915.626 5.564V10.268H919.322V12.816H915.626V22H912.742ZM921.142 10.268H924.026V22H921.142V10.268ZM920.974 6.068C920.974 5.62 921.152 5.24667 921.506 4.948C921.861 4.64933 922.244 4.5 922.654 4.5C923.084 4.5 923.466 4.64933 923.802 4.948C924.138 5.24667 924.306 5.62 924.306 6.068C924.306 6.516 924.138 6.88933 923.802 7.188C923.466 7.468 923.084 7.608 922.654 7.608C922.244 7.608 921.861 7.468 921.506 7.188C921.152 6.88933 920.974 6.516 920.974 6.068ZM938.035 20.908C937.512 21.3373 936.877 21.6733 936.131 21.916C935.403 22.1587 934.665 22.28 933.919 22.28C932.631 22.28 931.492 22.028 930.503 21.524C929.532 21.02 928.776 20.3107 928.235 19.396C927.693 18.4813 927.423 17.3893 927.423 16.12C927.423 14.8693 927.712 13.7867 928.291 12.872C928.869 11.9387 929.635 11.2293 930.587 10.744C931.539 10.24 932.547 9.988 933.611 9.988C934.581 9.988 935.44 10.1187 936.187 10.38C936.933 10.6413 937.577 11.0053 938.119 11.472L936.691 13.348C936.373 13.0867 935.972 12.8533 935.487 12.648C935.02 12.4427 934.479 12.34 933.863 12.34C933.209 12.34 932.612 12.508 932.071 12.844C931.529 13.1613 931.1 13.6093 930.783 14.188C930.465 14.748 930.307 15.392 930.307 16.12C930.307 16.8107 930.465 17.4547 930.783 18.052C931.119 18.6307 931.576 19.088 932.155 19.424C932.733 19.76 933.396 19.928 934.143 19.928C934.628 19.928 935.076 19.8627 935.487 19.732C935.897 19.5827 936.261 19.3773 936.579 19.116L938.035 20.908ZM941.337 10.268H944.221V22H941.337V10.268ZM941.169 6.068C941.169 5.62 941.346 5.24667 941.701 4.948C942.056 4.64933 942.438 4.5 942.849 4.5C943.278 4.5 943.661 4.64933 943.997 4.948C944.333 5.24667 944.501 5.62 944.501 6.068C944.501 6.516 944.333 6.88933 943.997 7.188C943.661 7.468 943.278 7.608 942.849 7.608C942.438 7.608 942.056 7.468 941.701 7.188C941.346 6.88933 941.169 6.516 941.169 6.068ZM953.51 22.28C952.409 22.28 951.41 22.056 950.514 21.608C949.618 21.1413 948.909 20.4507 948.386 19.536C947.864 18.6213 947.602 17.492 947.602 16.148C947.602 14.8227 947.873 13.684 948.414 12.732C948.974 11.78 949.702 11.052 950.598 10.548C951.513 10.0253 952.502 9.764 953.566 9.764C954.686 9.764 955.601 10.0067 956.31 10.492C957.038 10.9587 957.608 11.5093 958.018 12.144L957.822 12.592L958.102 10.268H960.762V22H957.878V19.06L958.186 19.76C958.112 19.9093 957.953 20.124 957.71 20.404C957.468 20.6653 957.141 20.9453 956.73 21.244C956.338 21.5427 955.872 21.7947 955.33 22C954.808 22.1867 954.201 22.28 953.51 22.28ZM954.294 19.928C954.91 19.928 955.461 19.816 955.946 19.592C956.432 19.368 956.842 19.0507 957.178 18.64C957.514 18.2293 957.748 17.744 957.878 17.184V14.748C957.729 14.2253 957.477 13.7773 957.122 13.404C956.768 13.012 956.338 12.704 955.834 12.48C955.349 12.256 954.808 12.144 954.21 12.144C953.538 12.144 952.922 12.312 952.362 12.648C951.802 12.9653 951.354 13.4133 951.018 13.992C950.682 14.5707 950.514 15.2427 950.514 16.008C950.514 16.736 950.682 17.3987 951.018 17.996C951.373 18.5933 951.84 19.0693 952.418 19.424C952.997 19.76 953.622 19.928 954.294 19.928ZM965.181 0.244H968.065V22H965.181V0.244Z" fill="#E0F2FF"/>
<path d="M742 14C742 10.229 742 8.343 743.172 7.172C744.344 6.001 746.229 6 750 6H752C755.771 6 757.657 6 758.828 7.172C759.999 8.344 760 10.229 760 14V16C760 19.771 760 21.657 758.828 22.828C757.656 23.999 755.771 24 752 24H750C746.229 24 744.343 24 743.172 22.828C742.001 21.656 742 19.771 742 16V14Z" stroke="#E0F2FF" stroke-width="2"/>
<path d="M755.5 12C756.328 12 757 11.3284 757 10.5C757 9.67157 756.328 9 755.5 9C754.672 9 754 9.67157 754 10.5C754 11.3284 754.672 12 755.5 12Z" fill="#E0F2FF"/>
<path d="M751 18C752.657 18 754 16.6569 754 15C754 13.3431 752.657 12 751 12C749.343 12 748 13.3431 748 15C748 16.6569 749.343 18 751 18Z" stroke="#E0F2FF" stroke-width="2"/>
<path d="M379.332 5.116H382.216V10.296H385.352V12.564H382.216V22H379.332V12.564H377.26V10.296H379.332V5.116ZM392.218 22.476C391.135 22.476 390.249 22.1493 389.558 21.496C388.867 20.8427 388.503 20.0027 388.466 18.976V10.268H391.35V17.94C391.387 18.5373 391.555 19.032 391.854 19.424C392.171 19.7973 392.675 19.9933 393.366 20.012C394.001 20.012 394.561 19.8253 395.046 19.452C395.55 19.06 395.942 18.5373 396.222 17.884C396.521 17.212 396.67 16.4467 396.67 15.588V10.268H399.554V22H396.95L396.726 19.284L396.838 19.732C396.595 20.2547 396.25 20.7307 395.802 21.16C395.354 21.5707 394.822 21.888 394.206 22.112C393.59 22.3547 392.927 22.476 392.218 22.476ZM403.97 22V0.244H406.854V22H403.97ZM409.71 14.16L415.086 22H411.726L407.806 15.812L409.71 14.16ZM405.958 18.388L405.678 15.616L412.79 10.016L414.554 11.556L405.958 18.388ZM422.87 22.28C421.768 22.28 420.77 22.056 419.874 21.608C418.978 21.1413 418.268 20.4507 417.746 19.536C417.223 18.6213 416.962 17.492 416.962 16.148C416.962 14.8227 417.232 13.684 417.774 12.732C418.334 11.78 419.062 11.052 419.958 10.548C420.872 10.0253 421.862 9.764 422.926 9.764C424.046 9.764 424.96 10.0067 425.67 10.492C426.398 10.9587 426.967 11.5093 427.378 12.144L427.182 12.592L427.462 10.268H430.122V22H427.238V19.06L427.546 19.76C427.471 19.9093 427.312 20.124 427.07 20.404C426.827 20.6653 426.5 20.9453 426.09 21.244C425.698 21.5427 425.231 21.7947 424.69 22C424.167 22.1867 423.56 22.28 422.87 22.28ZM423.654 19.928C424.27 19.928 424.82 19.816 425.306 19.592C425.791 19.368 426.202 19.0507 426.538 18.64C426.874 18.2293 427.107 17.744 427.238 17.184V14.748C427.088 14.2253 426.836 13.7773 426.482 13.404C426.127 13.012 425.698 12.704 425.194 12.48C424.708 12.256 424.167 12.144 423.57 12.144C422.898 12.144 422.282 12.312 421.722 12.648C421.162 12.9653 420.714 13.4133 420.378 13.992C420.042 14.5707 419.874 15.2427 419.874 16.008C419.874 16.736 420.042 17.3987 420.378 17.996C420.732 18.5933 421.199 19.0693 421.778 19.424C422.356 19.76 422.982 19.928 423.654 19.928ZM437.116 10.268L437.368 12.956L437.256 12.592C437.648 11.752 438.255 11.08 439.076 10.576C439.897 10.0533 440.868 9.792 441.988 9.792C443.089 9.792 443.995 10.1187 444.704 10.772C445.432 11.4253 445.805 12.2747 445.824 13.32V22H442.94V14.328C442.921 13.7307 442.744 13.2453 442.408 12.872C442.072 12.48 441.549 12.2747 440.84 12.256C440.205 12.256 439.627 12.452 439.104 12.844C438.581 13.2173 438.171 13.7307 437.872 14.384C437.573 15.0373 437.424 15.7933 437.424 16.652V22H434.54V10.268H437.116ZM455.975 27.824C455.061 27.824 454.267 27.7213 453.595 27.516C452.923 27.3107 452.317 27.0213 451.775 26.648C451.253 26.2933 450.749 25.9107 450.263 25.5L451.971 23.512C452.55 24.0533 453.147 24.4827 453.763 24.8C454.379 25.136 455.098 25.304 455.919 25.304C456.741 25.304 457.441 25.164 458.019 24.884C458.617 24.6227 459.074 24.2493 459.391 23.764C459.709 23.2787 459.867 22.7 459.867 22.028L459.895 18.976L460.091 19.536C459.774 20.3013 459.186 20.9547 458.327 21.496C457.469 22.0187 456.414 22.28 455.163 22.28C454.099 22.28 453.11 22.0093 452.195 21.468C451.299 20.9267 450.581 20.1893 450.039 19.256C449.498 18.3227 449.227 17.268 449.227 16.092C449.227 14.86 449.507 13.7773 450.067 12.844C450.646 11.892 451.402 11.1453 452.335 10.604C453.269 10.044 454.267 9.764 455.331 9.764C456.377 9.764 457.31 9.96933 458.131 10.38C458.953 10.772 459.569 11.2667 459.979 11.864L459.811 12.34L460.119 10.268H462.779V22.056C462.779 23.1387 462.49 24.1093 461.911 24.968C461.351 25.8453 460.567 26.536 459.559 27.04C458.551 27.5627 457.357 27.824 455.975 27.824ZM452.139 16.008C452.139 16.736 452.307 17.3987 452.643 17.996C452.979 18.5933 453.437 19.0693 454.015 19.424C454.613 19.76 455.275 19.928 456.003 19.928C456.657 19.928 457.245 19.816 457.767 19.592C458.29 19.3493 458.729 19.032 459.083 18.64C459.457 18.2293 459.727 17.7533 459.895 17.212V14.776C459.727 14.2347 459.457 13.7773 459.083 13.404C458.71 13.012 458.262 12.704 457.739 12.48C457.217 12.256 456.638 12.144 456.003 12.144C455.275 12.144 454.613 12.312 454.015 12.648C453.437 12.9653 452.979 13.4133 452.643 13.992C452.307 14.5707 452.139 15.2427 452.139 16.008ZM476.793 20.908C476.27 21.3373 475.635 21.6733 474.889 21.916C474.161 22.1587 473.423 22.28 472.677 22.28C471.389 22.28 470.25 22.028 469.261 21.524C468.29 21.02 467.534 20.3107 466.993 19.396C466.451 18.4813 466.181 17.3893 466.181 16.12C466.181 14.8693 466.47 13.7867 467.049 12.872C467.627 11.9387 468.393 11.2293 469.345 10.744C470.297 10.24 471.305 9.988 472.369 9.988C473.339 9.988 474.198 10.1187 474.945 10.38C475.691 10.6413 476.335 11.0053 476.877 11.472L475.449 13.348C475.131 13.0867 474.73 12.8533 474.245 12.648C473.778 12.4427 473.237 12.34 472.621 12.34C471.967 12.34 471.37 12.508 470.829 12.844C470.287 13.1613 469.858 13.6093 469.541 14.188C469.223 14.748 469.065 15.392 469.065 16.12C469.065 16.8107 469.223 17.4547 469.541 18.052C469.877 18.6307 470.334 19.088 470.913 19.424C471.491 19.76 472.154 19.928 472.901 19.928C473.386 19.928 473.834 19.8627 474.245 19.732C474.655 19.5827 475.019 19.3773 475.337 19.116L476.793 20.908ZM483.511 22.252C482.652 22.252 481.821 22.1027 481.019 21.804C480.216 21.4867 479.553 21.0293 479.031 20.432L480.263 18.808C480.767 19.2747 481.271 19.6293 481.775 19.872C482.297 20.096 482.792 20.208 483.259 20.208C483.632 20.208 483.968 20.1707 484.267 20.096C484.565 20.0027 484.808 19.8533 484.995 19.648C485.181 19.4427 485.275 19.172 485.275 18.836C485.275 18.444 485.144 18.136 484.883 17.912C484.621 17.688 484.285 17.5013 483.875 17.352C483.464 17.2027 483.025 17.0627 482.559 16.932C481.569 16.6147 480.823 16.1667 480.319 15.588C479.815 14.9907 479.563 14.2907 479.563 13.488C479.563 12.872 479.712 12.2933 480.011 11.752C480.328 11.192 480.804 10.7347 481.439 10.38C482.073 10.0253 482.857 9.848 483.791 9.848C484.649 9.848 485.405 9.95067 486.059 10.156C486.712 10.3427 487.319 10.6693 487.879 11.136L486.759 12.872C486.423 12.536 486.021 12.284 485.555 12.116C485.107 11.9293 484.696 11.8267 484.323 11.808C483.987 11.808 483.679 11.864 483.399 11.976C483.119 12.0693 482.895 12.2187 482.727 12.424C482.559 12.6107 482.475 12.8347 482.475 13.096C482.456 13.4693 482.577 13.7773 482.839 14.02C483.119 14.244 483.473 14.4307 483.903 14.58C484.332 14.7107 484.752 14.8507 485.163 15C485.741 15.168 486.255 15.4013 486.703 15.7C487.151 15.98 487.505 16.3253 487.767 16.736C488.028 17.1467 488.159 17.6693 488.159 18.304C488.159 18.9947 487.991 19.648 487.655 20.264C487.319 20.8613 486.805 21.3467 486.115 21.72C485.424 22.0747 484.556 22.252 483.511 22.252ZM501.88 28.16C500.349 28.16 498.903 27.936 497.54 27.488C496.196 27.0587 495.011 26.396 493.984 25.5C492.957 24.604 492.155 23.4747 491.576 22.112C490.997 20.768 490.708 19.2 490.708 17.408C490.708 16.232 490.885 15.0187 491.24 13.768C491.613 12.4987 492.183 11.276 492.948 10.1C493.713 8.90533 494.703 7.832 495.916 6.88C497.148 5.928 498.613 5.172 500.312 4.612C502.029 4.03333 504.017 3.744 506.276 3.744C508.012 3.744 509.552 4.00533 510.896 4.528C512.259 5.032 513.407 5.74133 514.34 6.656C515.292 7.552 516.011 8.60667 516.496 9.82C517 11.0147 517.252 12.312 517.252 13.712C517.252 14.8507 517.075 15.9333 516.72 16.96C516.384 17.9867 515.899 18.892 515.264 19.676C514.648 20.46 513.911 21.0853 513.052 21.552C512.212 22 511.279 22.224 510.252 22.224C509.487 22.224 508.824 22.0467 508.264 21.692C507.723 21.3187 507.321 20.8053 507.06 20.152C506.817 19.4987 506.771 18.7427 506.92 17.884L507.424 19.2C507.125 19.6853 506.696 20.1613 506.136 20.628C505.576 21.0947 504.932 21.4867 504.204 21.804C503.495 22.1213 502.767 22.28 502.02 22.28C500.993 22.28 500.069 22.0653 499.248 21.636C498.445 21.2067 497.811 20.5813 497.344 19.76C496.896 18.9387 496.681 17.968 496.7 16.848C496.7 15.5413 496.989 14.356 497.568 13.292C498.147 12.2093 498.94 11.3507 499.948 10.716C500.975 10.0813 502.151 9.764 503.476 9.764C504.297 9.764 504.979 9.876 505.52 10.1C506.061 10.324 506.509 10.6133 506.864 10.968C507.219 11.3227 507.499 11.7147 507.704 12.144L508.18 10.268H510.924L509.86 17.8C509.823 18.136 509.823 18.444 509.86 18.724C509.916 19.004 510.028 19.2187 510.196 19.368C510.383 19.5173 510.635 19.592 510.952 19.592C511.381 19.592 511.811 19.452 512.24 19.172C512.688 18.8733 513.08 18.4533 513.416 17.912C513.771 17.3707 514.051 16.7453 514.256 16.036C514.461 15.3267 514.564 14.552 514.564 13.712C514.564 12.2933 514.228 11.0053 513.556 9.848C512.903 8.69067 511.932 7.76667 510.644 7.076C509.356 6.36667 507.76 6.012 505.856 6.012C503.859 6.012 502.141 6.28267 500.704 6.824C499.285 7.36533 498.1 8.084 497.148 8.98C496.196 9.85733 495.44 10.8093 494.88 11.836C494.32 12.844 493.919 13.8333 493.676 14.804C493.433 15.756 493.312 16.5867 493.312 17.296C493.312 18.7893 493.536 20.0773 493.984 21.16C494.451 22.2427 495.085 23.1293 495.888 23.82C496.709 24.5293 497.661 25.052 498.744 25.388C499.845 25.7427 501.031 25.92 502.3 25.92C503.401 25.92 504.475 25.7427 505.52 25.388C506.584 25.052 507.573 24.5947 508.488 24.016L509.664 25.696C508.936 26.256 508.124 26.7133 507.228 27.068C506.351 27.4413 505.445 27.712 504.512 27.88C503.597 28.0667 502.72 28.16 501.88 28.16ZM503.14 19.928C503.719 19.928 504.251 19.816 504.736 19.592C505.24 19.368 505.679 19.0507 506.052 18.64C506.444 18.2293 506.752 17.744 506.976 17.184L507.312 14.748C507.237 14.2253 507.041 13.7773 506.724 13.404C506.425 13.012 506.033 12.704 505.548 12.48C505.081 12.256 504.54 12.144 503.924 12.144C503.159 12.144 502.459 12.3493 501.824 12.76C501.189 13.152 500.685 13.6747 500.312 14.328C499.939 14.9813 499.752 15.7 499.752 16.484C499.752 17.1187 499.892 17.6973 500.172 18.22C500.452 18.7427 500.844 19.1627 501.348 19.48C501.871 19.7787 502.468 19.928 503.14 19.928ZM526.413 27.824C525.498 27.824 524.705 27.7213 524.033 27.516C523.361 27.3107 522.754 27.0213 522.213 26.648C521.69 26.2933 521.186 25.9107 520.701 25.5L522.409 23.512C522.988 24.0533 523.585 24.4827 524.201 24.8C524.817 25.136 525.536 25.304 526.357 25.304C527.178 25.304 527.878 25.164 528.457 24.884C529.054 24.6227 529.512 24.2493 529.829 23.764C530.146 23.2787 530.305 22.7 530.305 22.028L530.333 18.976L530.529 19.536C530.212 20.3013 529.624 20.9547 528.765 21.496C527.906 22.0187 526.852 22.28 525.601 22.28C524.537 22.28 523.548 22.0093 522.633 21.468C521.737 20.9267 521.018 20.1893 520.477 19.256C519.936 18.3227 519.665 17.268 519.665 16.092C519.665 14.86 519.945 13.7773 520.505 12.844C521.084 11.892 521.84 11.1453 522.773 10.604C523.706 10.044 524.705 9.764 525.769 9.764C526.814 9.764 527.748 9.96933 528.569 10.38C529.39 10.772 530.006 11.2667 530.417 11.864L530.249 12.34L530.557 10.268H533.217V22.056C533.217 23.1387 532.928 24.1093 532.349 24.968C531.789 25.8453 531.005 26.536 529.997 27.04C528.989 27.5627 527.794 27.824 526.413 27.824ZM522.577 16.008C522.577 16.736 522.745 17.3987 523.081 17.996C523.417 18.5933 523.874 19.0693 524.453 19.424C525.05 19.76 525.713 19.928 526.441 19.928C527.094 19.928 527.682 19.816 528.205 19.592C528.728 19.3493 529.166 19.032 529.521 18.64C529.894 18.2293 530.165 17.7533 530.333 17.212V14.776C530.165 14.2347 529.894 13.7773 529.521 13.404C529.148 13.012 528.7 12.704 528.177 12.48C527.654 12.256 527.076 12.144 526.441 12.144C525.713 12.144 525.05 12.312 524.453 12.648C523.874 12.9653 523.417 13.4133 523.081 13.992C522.745 14.5707 522.577 15.2427 522.577 16.008ZM540.202 10.268L540.454 12.788L540.342 12.592C540.79 11.7147 541.406 11.0333 542.19 10.548C542.974 10.044 543.879 9.792 544.906 9.792C545.541 9.792 546.11 9.89467 546.614 10.1C547.137 10.3053 547.566 10.5947 547.902 10.968C548.238 11.3413 548.453 11.808 548.546 12.368L548.406 12.452C548.873 11.6307 549.489 10.9867 550.254 10.52C551.038 10.0347 551.869 9.792 552.746 9.792C553.885 9.792 554.79 10.1187 555.462 10.772C556.153 11.4253 556.507 12.2653 556.526 13.292V22H553.67V14.384C553.651 13.8053 553.511 13.32 553.25 12.928C553.007 12.536 552.569 12.3213 551.934 12.284C551.262 12.284 550.665 12.4893 550.142 12.9C549.638 13.3107 549.246 13.8427 548.966 14.496C548.686 15.1493 548.537 15.8493 548.518 16.596V22H545.634V14.384C545.615 13.8053 545.475 13.32 545.214 12.928C544.953 12.536 544.495 12.3213 543.842 12.284C543.17 12.284 542.582 12.4893 542.078 12.9C541.574 13.3107 541.182 13.852 540.902 14.524C540.641 15.1773 540.51 15.868 540.51 16.596V22H537.626V10.268H540.202ZM565.85 22.28C564.749 22.28 563.75 22.056 562.854 21.608C561.958 21.1413 561.249 20.4507 560.726 19.536C560.204 18.6213 559.942 17.492 559.942 16.148C559.942 14.8227 560.213 13.684 560.754 12.732C561.314 11.78 562.042 11.052 562.938 10.548C563.853 10.0253 564.842 9.764 565.906 9.764C567.026 9.764 567.941 10.0067 568.65 10.492C569.378 10.9587 569.948 11.5093 570.358 12.144L570.162 12.592L570.442 10.268H573.102V22H570.218V19.06L570.526 19.76C570.452 19.9093 570.293 20.124 570.05 20.404C569.808 20.6653 569.481 20.9453 569.07 21.244C568.678 21.5427 568.212 21.7947 567.67 22C567.148 22.1867 566.541 22.28 565.85 22.28ZM566.634 19.928C567.25 19.928 567.801 19.816 568.286 19.592C568.772 19.368 569.182 19.0507 569.518 18.64C569.854 18.2293 570.088 17.744 570.218 17.184V14.748C570.069 14.2253 569.817 13.7773 569.462 13.404C569.108 13.012 568.678 12.704 568.174 12.48C567.689 12.256 567.148 12.144 566.55 12.144C565.878 12.144 565.262 12.312 564.702 12.648C564.142 12.9653 563.694 13.4133 563.358 13.992C563.022 14.5707 562.854 15.2427 562.854 16.008C562.854 16.736 563.022 17.3987 563.358 17.996C563.713 18.5933 564.18 19.0693 564.758 19.424C565.337 19.76 565.962 19.928 566.634 19.928ZM577.521 10.268H580.405V22H577.521V10.268ZM577.353 6.068C577.353 5.62 577.53 5.24667 577.885 4.948C578.239 4.64933 578.622 4.5 579.033 4.5C579.462 4.5 579.845 4.64933 580.181 4.948C580.517 5.24667 580.685 5.62 580.685 6.068C580.685 6.516 580.517 6.88933 580.181 7.188C579.845 7.468 579.462 7.608 579.033 7.608C578.622 7.608 578.239 7.468 577.885 7.188C577.53 6.88933 577.353 6.516 577.353 6.068ZM584.794 0.244H587.678V22H584.794V0.244ZM590.695 20.404C590.695 19.956 590.854 19.5827 591.171 19.284C591.507 18.9667 591.881 18.808 592.291 18.808C592.665 18.808 593.01 18.9667 593.327 19.284C593.663 19.5827 593.831 19.956 593.831 20.404C593.831 20.8893 593.663 21.2813 593.327 21.58C593.01 21.86 592.665 22 592.291 22C591.881 22 591.507 21.86 591.171 21.58C590.854 21.2813 590.695 20.8893 590.695 20.404ZM606.402 20.908C605.879 21.3373 605.245 21.6733 604.498 21.916C603.77 22.1587 603.033 22.28 602.286 22.28C600.998 22.28 599.859 22.028 598.87 21.524C597.899 21.02 597.143 20.3107 596.602 19.396C596.061 18.4813 595.79 17.3893 595.79 16.12C595.79 14.8693 596.079 13.7867 596.658 12.872C597.237 11.9387 598.002 11.2293 598.954 10.744C599.906 10.24 600.914 9.988 601.978 9.988C602.949 9.988 603.807 10.1187 604.554 10.38C605.301 10.6413 605.945 11.0053 606.486 11.472L605.058 13.348C604.741 13.0867 604.339 12.8533 603.854 12.648C603.387 12.4427 602.846 12.34 602.23 12.34C601.577 12.34 600.979 12.508 600.438 12.844C599.897 13.1613 599.467 13.6093 599.15 14.188C598.833 14.748 598.674 15.392 598.674 16.12C598.674 16.8107 598.833 17.4547 599.15 18.052C599.486 18.6307 599.943 19.088 600.522 19.424C601.101 19.76 601.763 19.928 602.51 19.928C602.995 19.928 603.443 19.8627 603.854 19.732C604.265 19.5827 604.629 19.3773 604.946 19.116L606.402 20.908ZM608.696 16.008C608.696 14.832 608.976 13.7773 609.536 12.844C610.096 11.892 610.871 11.1453 611.86 10.604C612.85 10.0627 613.979 9.792 615.248 9.792C616.536 9.792 617.666 10.0627 618.636 10.604C619.607 11.1453 620.354 11.892 620.876 12.844C621.418 13.7773 621.688 14.832 621.688 16.008C621.688 17.184 621.418 18.248 620.876 19.2C620.354 20.152 619.607 20.908 618.636 21.468C617.666 22.0093 616.527 22.28 615.22 22.28C613.97 22.28 612.85 22.028 611.86 21.524C610.89 21.02 610.115 20.3013 609.536 19.368C608.976 18.416 608.696 17.296 608.696 16.008ZM611.608 16.036C611.608 16.764 611.767 17.4267 612.084 18.024C612.402 18.6027 612.831 19.0693 613.372 19.424C613.914 19.76 614.52 19.928 615.192 19.928C615.883 19.928 616.499 19.76 617.04 19.424C617.582 19.0693 618.002 18.6027 618.3 18.024C618.618 17.4267 618.776 16.764 618.776 16.036C618.776 15.308 618.618 14.6547 618.3 14.076C618.002 13.4973 617.582 13.0307 617.04 12.676C616.499 12.3213 615.883 12.144 615.192 12.144C614.502 12.144 613.886 12.3213 613.344 12.676C612.803 13.0307 612.374 13.5067 612.056 14.104C611.758 14.6827 611.608 15.3267 611.608 16.036ZM627.675 10.268L627.927 12.788L627.815 12.592C628.263 11.7147 628.879 11.0333 629.663 10.548C630.447 10.044 631.352 9.792 632.379 9.792C633.013 9.792 633.583 9.89467 634.087 10.1C634.609 10.3053 635.039 10.5947 635.375 10.968C635.711 11.3413 635.925 11.808 636.019 12.368L635.879 12.452C636.345 11.6307 636.961 10.9867 637.727 10.52C638.511 10.0347 639.341 9.792 640.219 9.792C641.357 9.792 642.263 10.1187 642.935 10.772C643.625 11.4253 643.98 12.2653 643.999 13.292V22H641.143V14.384C641.124 13.8053 640.984 13.32 640.723 12.928C640.48 12.536 640.041 12.3213 639.407 12.284C638.735 12.284 638.137 12.4893 637.615 12.9C637.111 13.3107 636.719 13.8427 636.439 14.496C636.159 15.1493 636.009 15.8493 635.991 16.596V22H633.107V14.384C633.088 13.8053 632.948 13.32 632.687 12.928C632.425 12.536 631.968 12.3213 631.315 12.284C630.643 12.284 630.055 12.4893 629.551 12.9C629.047 13.3107 628.655 13.852 628.375 14.524C628.113 15.1773 627.983 15.868 627.983 16.596V22H625.099V10.268H627.675Z" fill="#E0F2FF"/>
<path d="M348.333 20.6667C347.875 20.6667 347.483 20.5037 347.157 20.1775C346.831 19.8514 346.667 19.4589 346.667 19V9.00004C346.667 8.54171 346.83 8.14948 347.157 7.82337C347.483 7.49726 347.876 7.33393 348.333 7.33337H361.667C362.125 7.33337 362.518 7.49671 362.844 7.82337C363.171 8.15004 363.334 8.54226 363.333 9.00004V19C363.333 19.4584 363.17 19.8509 362.844 20.1775C362.518 20.5042 362.126 20.6673 361.667 20.6667H348.333ZM355 14.8334L361.667 10.6667V9.00004L355 13.1667L348.333 9.00004V10.6667L355 14.8334Z" fill="#E0F2FF"/>
</svg>
